<?xml version="1.0" encoding="UTF-8"?>
<svg width="512px" height="512px" viewBox="0 0 512 512" version="1.1" xmlns="http://www.w3.org/2000/svg" xmlns:xlink="http://www.w3.org/1999/xlink">
    <title>Icon</title>
    <g id="Icon" stroke="none" stroke-width="1" fill="none" fill-rule="evenodd">
        <rect fill="#1E3243" x="0" y="0" width="512" height="512"></rect>
        <g id="Astronaut" transform="translate(-47, 48)">
            <path d="M589,629.824431 C548.241322,662.830125 467.736985,709.01764 371.580128,752.569995 C275.413057,796.110316 187.597682,826.143933 135.930127,835 C130.557403,826.186048 125.685781,816.962984 121.32908,807.330808 C121.119987,806.873566 120.925315,806.440389 120.719827,805.965097 C118.823571,801.711538 117.055896,797.451962 115.427015,793.126207 C111.585836,783.066871 108.43983,772.875175 105.96196,762.64738 C105.864624,762.232252 105.767287,761.82314 105.669951,761.408012 C102.078722,746.186648 99.9631595,730.844957 99.2673851,715.569445 C97.9172945,686.492428 101.703196,657.668097 110.09635,630.311755 C112.991204,620.890152 116.429218,611.661072 120.410393,602.660613 C125.003826,592.16449 130.34831,581.990241 136.365136,572.192014 C141.525763,563.801613 147.190496,555.69037 153.343112,547.926873 L153.356931,547.926873 C155.764503,544.860941 158.270012,541.85036 160.845218,538.895731 C183.742082,512.595258 212.526592,490.671681 246.364177,475.354656 C251.054946,473.2363 255.787173,471.270758 260.53382,469.445398 C324.241636,445.110467 392.448552,448.594535 451.019774,474.532221 C451.378477,474.699476 451.754003,474.852893 452.11631,475.033985 C457.617614,477.486851 463.032397,480.162923 468.331818,483.033925 C487.582176,493.361591 505.555145,506.281701 521.683531,521.501862 C531.750629,531.007093 541.104528,541.432224 549.591413,552.735741 C550.513704,553.948036 551.414966,555.188607 552.333653,556.429178 C553.085306,557.446543 553.812324,558.477745 554.532733,559.508947 C560.577197,568.136393 566.144594,577.223487 571.138187,586.756995 C573.020623,590.297015 574.799113,593.892987 576.51091,597.544309 C576.973558,598.547836 577.443416,599.551363 577.892245,600.568728 C582.245942,610.199099 585.937511,619.969651 589,629.824431 Z" id="Path" fill="#FFB200"></path>
            <path d="M350.592979,457.104102 C316.707407,457.104102 282.429093,464.140943 249.946001,478.822148 C143.034331,527.1334 85.4169264,644.778955 112.947867,758.554696 C115.378672,768.590207 118.483436,778.577788 122.178212,788.241836 C123.93506,792.849185 125.869391,797.498472 127.935636,802.063881 C131.609426,810.188152 135.745512,818.144665 140.24616,825.759671 C193.342531,815.963814 280.8941,785.168274 370.314043,744.756616 C459.741182,704.344959 540.701874,658.990437 583.123447,625.618617 C580.373051,617.212752 577.122583,608.86081 573.445195,600.730548 C571.382548,596.177122 569.167002,591.656049 566.860914,587.294346 C562.034081,578.133571 556.581857,569.209455 550.643952,560.756858 C503.777495,494.068936 428.237247,457.104102 350.592979,457.104102 Z M134.679412,838 L132.713901,834.788636 C127.213109,825.807602 122.198599,816.335278 117.809478,806.635281 C115.649695,801.866167 113.628421,797.007182 111.794823,792.196127 C107.936954,782.100702 104.690084,771.657779 102.147752,761.166924 C73.363633,642.208665 133.595923,519.211637 245.365605,468.703955 C357.138885,418.189084 489.352158,454.22406 559.738786,554.379066 C565.947713,563.216906 571.649973,572.547236 576.688468,582.113625 C579.095289,586.666452 581.41157,591.395425 583.567755,596.159747 C587.960474,605.859144 591.770375,615.876681 594.885331,625.936158 L596,629.524977 L593.07272,631.89156 C550.213435,666.533547 468.648339,712.511169 374.894438,754.876007 C281.144136,797.240844 192.731531,828.078324 138.391577,837.370908 L134.679412,838 Z" id="Shape" fill="#371A45"></path>
            <path d="M338.160257,464.365708 C392.845177,468.536326 488.774248,468.679143 497.064838,414.689499 C498.141929,407.618552 498.758699,399.902216 498.936208,391.774302 C500.190809,337.832867 482.773228,266.019423 461.372217,248.433649 C449.154157,238.396688 426.425737,235.38789 401.481158,237.775404 C351.911517,242.521508 293.536207,268.543125 291.288758,303.020473 C289.103287,336.202825 283.475337,460.19509 338.160257,464.365708 Z" id="Path" fill="#FFFFFF"></path>
            <path d="M455.058612,448 C456.168332,445.451586 457.172168,442.864251 458.070119,440.252965 C461.375619,430.747907 463.472612,420.926693 464.613092,411.040211 C466.521386,411.608455 468.525508,411.889284 470.618952,411.889284 C473.852876,411.889284 477.30271,411.213259 480.944203,409.854025 C485.706654,408.078638 489.320936,404.978147 492,400.907032 C491.701866,404.735641 491.293707,408.42174 490.75955,411.934791 C488.059782,429.72459 474.174671,441.026591 455.058612,448 Z M440.577233,293.979624 C437.579923,289.412119 434.407518,284.987123 431.145792,280.652544 C425.698933,273.463573 419.991208,266.510522 414.006052,259.831713 C408.658572,253.901381 402.968001,248.311157 397,243.054454 C400.6829,242.579022 404.310786,242.228735 407.857041,242 C417.226371,251.109862 429.690023,267.093137 440.577233,293.979624 Z" id="Shape" fill="#B9AFBE"></path>
            <path d="M415.830344,242.993643 C393.42855,242.993643 366.468583,248.398632 342.441051,258.836164 C314.249808,271.080157 297.478242,287.388088 296.417561,303.577867 C294.09807,338.944804 290.243226,454.618899 337.937946,458.25881 C391.577746,462.350937 482.674782,461.975491 490.100146,413.520706 C498.03909,361.727687 479.232358,271.820254 456.563598,253.184675 C448.223008,246.331877 433.433934,242.993643 415.830344,242.993643 Z M378.085192,471 C364.287962,471 350.424888,470.357063 337.095148,469.339279 C282.848988,465.202771 281.389654,363.252263 285.345059,302.848565 C286.707424,282.056268 305.417186,262.802942 338.027733,248.637934 C379.087212,230.801828 438.769062,224.184734 463.597492,244.591389 C491.625323,267.630967 509.024798,363.276853 501.064903,415.205417 C494.305158,459.31138 436.942201,471 378.085192,471 Z" id="Shape" fill="#371A45"></path>
            <path d="M450.678335,339.049887 L475.670484,330.545835 C481.319365,328.624588 487.430422,331.958429 488.67708,337.671718 C492.959503,357.319831 499.094885,397.92597 478.69591,405.309444 C453.971337,414.256861 446.596594,386.561711 444.021789,348.83299 C443.72624,344.484813 446.462807,340.483255 450.678335,339.049887 Z" id="Path" fill="#FFFFFF"></path>
            <path d="M469.690173,401 C467.614919,401 465.781503,400.578186 464.157638,399.733437 C464.164602,399.61957 464.168401,399.505703 464.175998,399.392396 C464.428599,393.92172 464.362758,388.451044 464,383 C467.024883,385.234715 470.584723,386.446868 474.779549,386.446868 C477.496119,386.446868 480.484283,385.939794 483.7624,384.871237 C484.920947,384.490932 485.999092,384.019757 487,383.461078 C485.709138,391.729074 482.508258,397.820131 476.605367,399.746338 C474.045802,400.584356 471.750867,401 469.690173,401 Z" id="Path" fill="#B9AFBE"></path>
            <path d="M480.737535,334.995273 C480.31027,334.995273 479.844919,335.063543 479.348625,335.232143 L454.872506,343.683476 C453.080133,344.302068 451.915567,346.03496 452.036368,347.902018 C452.739154,358.797446 454.876076,391.958658 466.362851,399.416205 C469.457847,401.423961 473.403804,401.506479 478.428636,399.656637 C491.683385,394.788631 490.439078,364.77975 484.856064,338.323326 C484.518656,336.72104 483.43621,335.895854 482.819115,335.548563 C482.39542,335.308131 481.661095,334.995273 480.737535,334.995273 Z M471.853033,412 C467.648218,412 463.802234,410.879171 460.349001,408.637514 C449.04789,401.303448 443.272071,383.349411 441.031606,348.606692 C440.590653,341.819979 444.802015,335.517693 451.267528,333.286128 L475.740672,324.838357 C479.883004,323.408232 484.442486,323.820825 488.25455,325.976401 C492.055903,328.121886 494.750413,331.79723 495.650169,336.057329 C501.812194,365.268332 504.490041,401.809245 482.240105,409.981559 C478.57681,411.329165 475.10632,412 471.853033,412 Z" id="Shape" fill="#371A45"></path>
            <path d="M469.12748,257.665495 C466.330659,259.105811 463.338824,260.117469 460.318869,260.998083 C457.295245,261.888598 454.172586,262.50596 451.049316,263.140211 C447.923601,263.770969 444.768542,264.323682 441.585973,264.823395 C438.388733,265.298647 435.184767,265.754097 431.859759,265.996965 C431.420827,266.03424 431.038747,265.723812 431.00329,265.305636 C430.978226,265.052285 431.098657,264.812912 431.286335,264.657989 C433.86369,262.623608 436.58654,260.873446 439.34118,259.190262 C442.113548,257.547264 444.928098,255.992212 447.792166,254.562379 C450.656844,253.131964 453.531304,251.721933 456.519471,250.615924 C459.511306,249.502926 462.538597,248.54485 465.781687,248.062609 C468.720337,247.62405 471.474976,249.536124 471.934694,252.3358 C472.295989,254.5385 471.127743,256.633453 469.183723,257.638704 L469.12748,257.665495 Z" id="Path" fill="#371A45"></path>
            <path d="M368.34956,438.973432 L348.234049,432.85496 C325.524847,425.949818 300.871577,427.101877 279.334339,436.958381 C271.872075,440.373091 264.664377,444.869546 258.70069,450.789698 C236.905884,472.424608 236.294085,515.868707 251.092531,533.476519 C256.927134,540.420123 263.203625,548.129362 263.203625,548.129362 C259.055521,554.074154 230.497307,602.31279 253.477886,621.483724 C273.603604,638.280827 310.746814,635.522376 330.31657,609.109757 C343.251401,591.656996 345.876912,571.518502 345.139632,556.127668 C344.280472,538.129827 335.146118,513.832622 350.025016,507.501406 C372.205874,498.05897 392.352605,503.293416 424.429714,478.745607 C461.96558,450.021058 467.845212,388.154833 451.16514,335.849435 C439.172323,298.231737 366.165937,227 366.165937,227 L389.195147,438.531719 L368.34956,438.973432 Z" id="Path" fill="#FFFFFF"></path>
            <path d="M255,348.16072 L182.02942,414 L181.268931,412.795313 L150,362.895378 C186.920409,347.311882 209.871675,301 209.871675,301 L212.80448,304.067282 L255,348.16072 Z" id="Path" fill="#FFFFFF"></path>
            <path d="M206,337 C206.993171,332.423293 207.842601,328.046823 208.565444,324 C211.364541,324.731187 214.177242,325.387817 217,325.974151 C216.969241,328.663512 216.897075,331.318791 216.791192,333.919217 C212.878845,334.986441 209.288288,336.016386 206,337 Z" id="Path" fill="#B9AFBE"></path>
            <path d="M158.05208,365.397453 L183.308736,406.640829 L247.213993,347.66392 L211.201663,309.15599 C203.628126,322.437694 184.960059,351.113619 158.05208,365.397453 Z M180.924817,424 L142,360.430951 L147.928776,357.870287 C182.558839,342.913931 204.799205,297.688644 205.016956,297.23324 L208.523631,290 L263,348.252376 L180.924817,424 Z" id="Shape" fill="#371A45"></path>
            <path d="M170,354.372088 C170,354.372088 127.028698,315.438181 99.6548164,305 L92,323.082339 L149.395297,380 L170,354.372088 Z" id="Path" fill="#FFFFFF"></path>
            <path d="M99.0285703,323.287367 L150.170117,373.39396 L163.895088,356.530693 C153.501628,347.59488 124.621605,323.598676 103.161496,313.646826 L99.0285703,323.287367 Z M150.630782,387 C149.190016,387 147.804459,386.435272 146.773305,385.425733 L88.6422339,328.47093 C87.029906,326.893709 86.5555871,324.495388 87.4389244,322.425508 L95.191871,304.327637 C96.3470956,301.628049 99.4447124,300.317834 102.198611,301.354546 C130.562761,312.042432 173.370186,350.195227 175.178416,351.813208 C177.354702,353.759628 177.615904,357.064703 175.773243,359.325977 L154.907963,384.970879 C153.931424,386.171811 152.490658,386.903713 150.940069,386.989367 C150.837369,386.996456 150.734075,387 150.630782,387 Z" id="Shape" fill="#371A45"></path>
            <path d="M213.450802,248 C235.789104,336.294579 209.355386,417.074905 209.355386,417.074905 C122.865268,447.870237 170.052612,532.407689 170.052612,532.407689 C170.052612,532.407689 110.417702,566.615639 138.533737,600.793526 C163.014052,630.55473 245.240764,596.363015 249.216708,552.938111 C249.216708,552.938111 235.072877,508.85846 257,493.763818 L213.450802,248 Z" id="Path" fill="#FFFFFF"></path>
            <path d="M460,394.064043 C459.524728,428.39549 448.47301,460.360328 424.494856,478.751123 C392.481431,503.295821 372.373776,498.061397 350.228386,507.500186 C342.633626,510.744207 341.300707,518.665554 341.939597,528.049054 C341.037,538.546146 344.813403,552.607574 345.355201,564.149147 C345.368986,564.371505 345.368986,564.594464 345.382771,564.817422 C344.813403,578.641468 341.162261,594.791257 330.554649,609.114707 C311.699602,634.60773 276.48933,638.063291 256.010687,623.153298 C255.274705,622.618437 254.552507,622.065547 253.858479,621.482609 C248.526804,617.041462 245.972442,611.007753 245.250245,604.324999 C246.833086,587.10609 256.343917,568.214088 261.203317,559.805357 C262.24436,557.995244 263.077434,556.672515 263.563494,555.948951 C263.563494,555.948951 262.494282,554.598578 260.83173,552.52404 C259.568333,550.936886 257.954327,548.932059 256.191087,546.746342 C254.677768,544.867118 253.052974,542.876114 251.470133,540.941 C249.887292,539.005886 248.471066,536.764279 247.249623,534.272068 C248.526804,543.878527 250.831842,551.117777 250.831842,551.117777 C246.902609,594.526831 165.638315,628.706234 141.438408,598.952353 C137.040495,593.552063 134.815767,588.150571 134.194258,582.887902 C130.817011,554.835359 172.594185,530.597155 172.594185,530.597155 C172.594185,530.597155 149.352013,488.497006 165.749192,452.89812 C172.5804,438.07106 186.297957,424.372015 211.42863,415.322653 C211.42863,415.322653 217.606564,396.235938 221.411136,366.470639 C222.383256,358.841362 223.205542,350.515564 223.732956,341.63327 C224.70148,324.969054 224.631957,306.341478 222.549871,286.669421 L366.337284,227 C366.337284,227 366.406807,227.069111 366.542257,227.208536 C366.611779,227.278248 366.695087,227.361782 366.80956,227.472961 L367.142789,227.807099 C367.264454,227.946523 367.406496,228.085948 367.569515,228.238593 C368.305497,228.990403 369.34714,230.048706 370.665674,231.412901 C376.80645,237.747695 388.770955,250.360793 401.724959,265.341099 C422.134679,288.938673 444.945929,318.397479 451.193986,338.50103 C452.985395,344.251083 454.512498,350.126137 455.762109,356.05648 C458.445328,368.628111 459.885527,381.464167 460,394.064043 Z" id="Path" fill="#FFFFFF"></path>
            <path d="M243.880784,501 C242.131008,501 240.510999,499.91175 239.955194,498.202136 C225.109652,452.531934 163.314653,460.466709 162.69367,460.546829 C160.439048,460.870768 158.359226,459.33177 158.040439,457.138554 C157.724614,454.948796 159.293072,452.92216 161.544138,452.612055 C162.237412,452.525018 230.885157,443.729096 247.806966,495.785275 C248.493129,497.894913 247.292047,500.148652 245.123344,500.812669 C244.711527,500.939478 244.2926,501 243.880784,501 Z" id="Path" fill="#371A45"></path>
            <path d="M221,289 L214,248 C217.39671,261.945055 219.638229,275.705739 221,289 Z" id="Path" fill="#FFFFFF"></path>
            <path d="M169.870469,619 C155.635797,619 143.964261,614.468472 136.787599,605.706715 C129.439011,596.737063 126.679734,586.937634 128.583623,576.582611 C132.485839,555.371205 155.439657,538.141156 165.319297,531.604186 C159.78682,519.707119 147.449377,487.631496 158.749215,457.774634 C166.234617,438.001024 182.544498,423.210286 207.254495,413.777236 C211.360115,399.475205 229.931659,327.153349 210.47688,249.942024 C209.723194,246.951336 211.549595,243.918466 214.554047,243.168233 C217.559104,242.421013 220.605327,244.232419 221.359618,247.223107 C243.791002,336.251355 218.263755,416.39793 217.166219,419.765843 L216.314463,422.369061 L213.727112,423.297663 C190.77632,431.50262 175.820047,444.408435 169.270548,461.655357 C157.164356,493.539957 177.30623,530.56772 177.509635,530.937714 L180.16055,535.729564 L175.409606,538.468969 C175.094208,538.653966 143.557453,557.095235 139.617099,578.613965 C138.316158,585.691464 140.237603,592.245909 145.48253,598.649705 C153.447989,608.376219 171.167778,610.52749 191.719487,604.266509 C216.741855,596.653302 243.131754,577.281021 245.92251,554.746312 C243.699591,547.148772 233.06566,506.302354 256.191403,490.318474 C258.733352,488.559495 262.232391,489.184387 263.999466,491.717704 C265.762909,494.251624 265.135141,497.731017 262.590165,499.489997 C247.468625,509.942641 253.404279,541.316841 256.966276,552.526346 L257.306494,553.597763 L257.208424,554.718593 C254.547218,583.901149 223.094609,606.399702 195.001198,614.95055 C186.075016,617.668261 177.593781,619 169.870469,619 Z" id="Path" fill="#371A45"></path>
            <path d="M372,420.964676 L355.338205,435 L178,354.781539 C178,354.781539 190.048416,347.764175 222.73829,338.218461 C244.564207,331.836167 275.59704,324.321481 318.399309,317 L372,420.964676 Z" id="Path" fill="#FFFFFF"></path>
            <path d="M191.191888,356.017001 L352.694274,431.692376 L363.193624,422.53004 L313.954474,323.594923 C244.611124,336.116435 207.513225,349.147544 191.191888,356.017001 Z M354.494588,445 L166,356.672809 L175.160578,351.152894 C176.550566,350.316618 210.434343,330.41544 316.079356,311.708419 L320.080186,311 L377,425.357597 L354.494588,445 Z" id="Shape" fill="#371A45"></path>
            <polygon id="Path" fill="#73BEFD" points="236.958135 467 360 436.349178 309.041865 338 186 364.386741"></polygon>
            <polygon id="Path" fill="#73BEFD" points="236.958135 467 360 436.349178 309.041865 338 186 364.386741"></polygon>
            <path d="M169.53613,605 C158.804621,605 150.158809,601.901334 145.245486,595.906193 C143.964247,594.343699 142.884422,592.771037 142,591.184017 C147.661865,594.558452 154.49374,595.909782 161.733254,595.909782 C184.843666,595.909782 212.087594,582.111147 218.633881,576.176424 C229.243338,566.558595 230.664065,561.417681 224.020378,525.09629 C220.430382,505.473598 225.371361,490.659222 232.711884,479.905416 L231.778762,480.141106 L213.253997,480.141106 L173.391272,465.923134 L169.031691,459.496692 C169.195227,459.073766 169.362372,458.658018 169.539737,458.238681 C171.423418,458.114256 173.930583,458 176.883868,458 C177.955876,458 179.084401,458.013759 180.26824,458.048454 L217.059838,471.181893 C217.14341,471.210008 217.223375,471.237525 217.306947,471.262051 C217.732023,471.390066 218.173933,471.466037 218.626666,471.483385 C218.630273,471.483385 218.630273,471.483385 218.630273,471.483385 C218.636887,471.483385 218.644102,471.483385 218.651317,471.483385 C218.654323,471.483385 218.65793,471.483385 218.661538,471.483385 C218.665145,471.483385 218.671759,471.483385 218.678974,471.483385 C218.682581,471.483385 218.682581,471.483385 218.686188,471.483385 C218.692802,471.483385 218.700017,471.486974 218.703023,471.486974 C218.710238,471.486974 218.717453,471.486974 218.724066,471.486974 C218.727674,471.486974 218.731281,471.486974 218.734889,471.486974 C218.737895,471.486974 218.74511,471.486974 218.748717,471.486974 C218.752325,471.486974 218.755331,471.486974 218.762546,471.486974 C218.766153,471.486974 218.769159,471.486974 218.772767,471.486974 C218.776374,471.486974 218.783589,471.486974 218.786595,471.486974 C218.790203,471.486974 218.79381,471.486974 218.797418,471.486974 C218.804031,471.486974 218.811246,471.486974 218.818461,471.486974 C218.821467,471.486974 218.821467,471.486974 218.821467,471.486974 L225.465756,471.486974 C229.859608,474.70528 233.878287,478.665351 237.235003,483.536478 C236.23875,488.726444 235.727096,493.992382 235.66096,499.2649 C235.602038,501.755797 235.814276,504.253872 235.911676,506.748358 L236.354188,510.486498 C236.48646,511.733741 236.649997,512.977395 236.931978,514.217459 L237.684128,517.93885 C237.97633,519.175325 238.380362,520.39864 238.728479,521.628535 C239.202256,523.520038 239.989277,525.366675 240.755255,527.209723 C241.298174,538.770499 244.000741,548.917734 245,552.323275 C242.22829,574.693491 216.018492,593.924961 191.166893,601.482595 C183.426547,603.839496 176.093239,605 169.53613,605 Z M239.870833,473.323442 C239.296049,472.675594 238.711044,472.045093 238.115817,471.431342 C238.286569,471.403824 238.460327,471.372718 238.631079,471.327853 L240.745034,470.794261 C240.438402,471.635925 240.145599,472.478188 239.870833,473.323442 Z" id="Shape" fill="#B9AFBE"></path>
            <path d="M235.376578,483 C232.035665,478.208727 228.035904,474.313575 223.662737,471.148028 L235.487284,471.148028 C235.490874,471.148028 235.494465,471.148028 235.498055,471.148028 C235.508228,471.148028 235.518401,471.148028 235.529172,471.148028 C235.532164,471.148028 235.539345,471.148028 235.546526,471.148028 C235.553109,471.148028 235.56029,471.148028 235.570463,471.148028 C235.574053,471.148028 235.581234,471.148028 235.584226,471.148028 C235.594997,471.148028 235.60158,471.148028 235.612351,471.148028 C235.615343,471.144498 235.618934,471.144498 235.622524,471.144498 C235.632697,471.144498 235.643468,471.144498 235.653641,471.144498 C235.657232,471.144498 235.657232,471.144498 235.660822,471.144498 C235.670995,471.144498 235.684759,471.144498 235.69553,471.144498 C235.698522,471.144498 235.698522,471.144498 235.698522,471.144498 C235.882233,471.138025 236.069535,471.120962 236.253246,471.093308 C236.845671,471.696409 237.427922,472.316574 238,472.953802 C236.904913,476.255855 236.034827,479.61263 235.376578,483 Z M168,458.116919 C168.89103,456.011066 169.920292,453.969935 171.081204,452 L173.077494,454.907243 C173.698043,455.806894 174.592065,456.488251 175.6315,456.855996 L178.677997,457.929811 C177.499731,457.895684 176.376518,457.882151 175.309557,457.882151 C172.370175,457.882151 169.874813,457.994534 168,458.116919 Z" id="Shape" fill="#371A45"></path>
            <path d="M170.720074,611 C158.923401,611 148.631523,607.579079 142.266659,599.747765 C137.855081,594.326179 135.62344,588.903386 135,583.619964 C137.315207,586.964261 140.142633,589.539303 143.342199,591.460931 C144.226558,593.061584 145.306307,594.647757 146.587456,596.223673 C151.500432,602.269714 160.145633,605.394999 170.876385,605.394999 C177.433031,605.394999 184.765821,604.224525 192.505621,601.847378 C217.355466,594.224818 243.563413,574.82874 246.334928,552.26635 C245.33574,548.831552 242.633363,538.597146 242.090483,526.936452 C242.327354,527.509622 242.560618,528.082792 242.783662,528.655963 C244.071424,531.021647 245.182435,533.439218 246.937327,535.644415 L248.159559,537.321692 C248.434305,537.698778 248.681397,537.992603 248.925482,538.285825 C250.227674,546.147909 252,551.724553 252,551.724553 C249.092615,583.881812 203.940374,610.993967 170.720074,611 Z M170.371981,458.642324 L166.652981,453.117567 C167.763992,450.710252 169.052355,448.334311 170.539114,446 L173.975551,451.101214 C172.809231,453.121187 171.775173,455.214163 170.879992,457.373506 C170.702639,457.796445 170.535507,458.215764 170.371981,458.642324 Z" id="Shape" fill="#371A45"></path>
            <polygon id="Path" fill="#1F9FFF" points="360 436.35842 236.960875 467 233.574798 460.195441 186 364.393997 309.036105 338"></polygon>
            <path d="M226.158118,433 L194,366.89316 L294,345 L210.307978,367.554006 C204.876175,369.020953 201.971752,374.947562 204.14184,380.155103 L226.158118,433 Z" id="Path" fill="#BBE2FF"></path>
            <path d="M242.103121,459 L238,450.543479 C248.545098,427.716379 295.371645,416.035532 295.371645,416.035532 C290.671306,399.261975 294.278432,386.416755 300.392326,377 C299.709366,379.870524 299.337221,382.824859 299.223493,385.764826 C299.061536,390.850951 299.754619,395.989159 301.427187,400.766979 C303.027112,405.523847 305.530903,410.120876 308.285966,413.955824 C308.347891,414.04203 308.409816,414.128834 308.472336,414.215638 C309.396446,416.683869 310.586119,419.097025 312.03421,421.416791 C312.355147,421.926242 312.67549,422.429108 313,422.918204 C308.665256,423.178018 304.340635,423.732966 300.057693,424.540544 C295.216237,425.500778 290.446828,426.859712 285.815559,428.579631 C276.563739,432.012287 267.728721,436.835006 260.031574,443.554247 C259.076501,444.400139 258.131551,445.256207 257.224708,446.161365 C256.30417,447.04557 255.480093,448.078241 254.60719,449.035481 C253.77299,450.026844 252.838162,450.955948 252.096849,452.006578 L249.890179,455.175828 L248.796966,456.767038 L248.452211,457.380653 L242.103121,459 Z" id="Path" fill="#2771BE"></path>
            <path d="M191.928824,366.60468 L238.213319,460.681068 L351.062136,432.304457 L304.794599,342.172819 L191.928824,366.60468 Z M235.358166,472 C233.383664,472 231.527875,470.893692 230.629659,469.070867 L179.531862,365.210083 C178.823827,363.769841 178.823827,362.08996 179.525199,360.649718 C180.230205,359.206473 181.563297,358.166231 183.138052,357.82569 L306.520168,331.118752 C308.85323,330.61785 311.242013,331.734368 312.3292,333.849085 L363.426997,433.389744 C364.153202,434.805361 364.191359,436.468426 363.52875,437.915275 C362.86917,439.35852 361.581504,440.426389 360.031581,440.816179 L236.652494,471.839639 C236.221253,471.947748 235.786378,472 235.358166,472 Z" id="Shape" fill="#371A45"></path>
            <polygon id="Path" fill="#1F9FFF" points="187.698981 364 165 364.182763 218.998247 469 237 469"></polygon>
            <polygon id="Path" fill="#BBE2FF" points="173.443703 372.37035 171 366.73115 181.772935 366.62965 184 372.26465"></polygon>
            <path d="M221.266507,460.683494 L228.340078,460.683494 L182.470998,368.344414 L170.985438,368.430513 L221.266507,460.683494 Z M236.747465,471 L218.118196,471 C216.182169,471 214.403346,469.95493 213.489145,468.27688 L157.622501,365.772116 C156.754252,364.180165 156.796576,362.257474 157.734962,360.703525 C158.673349,359.152546 160.371756,358.192982 162.209832,358.179325 L185.699725,358 C187.664169,358 189.572383,359.114544 190.458167,360.899476 L241.467815,463.578814 C242.262904,465.17789 242.161326,467.066142 241.201777,468.575556 C240.242229,470.082001 238.557728,471 236.747465,471 Z" id="Shape" fill="#371A45"></path>
            <polygon id="Path" fill="#1F9FFF" points="219 467 178.764233 452.501586 162.484468 428.281036 126.845705 375.317417 91 322 162.920197 361.708989 218.634667 466.307653"></polygon>
            <polygon id="Path" fill="#BBE2FF" points="206 458 205.632108 457.868214 155.123837 370.956535 109.010299 344.40944 106 340 157.272494 367.875737"></polygon>
            <path d="M180.369904,448.349911 L205.79727,457.408559 L157.469072,367.757031 L106.616741,340.027512 L180.369904,448.349911 Z M216.783788,472 C216.196864,472 215.602139,471.899891 215.025417,471.696099 L175.246623,457.525948 C174.204203,457.15352 173.307614,456.463485 172.685283,455.552376 L85.8949681,328.076438 C84.5464835,326.095715 84.7379239,323.455348 86.3606664,321.688548 C87.9804082,319.925324 90.6113633,319.486752 92.7214086,320.63979 L163.843017,359.422384 C164.729404,359.902072 165.452556,360.630243 165.932057,361.517516 L221.382559,464.37982 C222.400373,466.267584 222.143519,468.583194 220.732621,470.205194 C219.724409,471.364786 218.271502,472 216.783788,472 Z" id="Shape" fill="#371A45"></path>
            <path d="M164,361 C164,361 164.414075,349.415657 175.038754,348.065649 C183.827076,346.952484 190,360.36429 190,360.36429 L164,361 Z" id="Path" fill="#371A45"></path>
            <path d="M459.993863,392.488673 C460.007672,392.823608 459.993863,393.158543 459.993863,393.493477 C459.517742,427.906816 448.446285,459.947901 424.425307,478.383166 C392.354708,502.985808 372.211141,497.738899 350.0262,507.200203 C342.417876,510.451961 341.082576,518.392806 341.722607,527.798689 C342.324212,536.799758 344.713221,547.126109 345.144312,555.945856 C345.269196,558.709068 345.297415,561.625891 345.17193,564.654159 C344.601546,578.511782 340.943883,594.699491 330.317326,609.057709 C310.747145,635.533215 273.610334,638.298234 253.484179,621.449089 C248.142982,616.997349 245.584058,610.955271 244.860571,604.256576 C244.832953,604.033688 244.818543,603.798752 244.804734,603.575864 C243.150019,585.321921 254.638757,562.323471 260.469884,552.331453 C261.690506,550.238111 262.663762,548.703194 263.206527,547.92188 C263.206527,547.92188 256.933502,540.204526 251.091568,533.240776 C236.292801,515.587426 236.908215,472.047117 258.699892,450.34684 C264.66671,444.416206 271.871563,439.908443 279.340593,436.489217 C290.843741,431.214597 303.236687,428.423073 315.740709,428.032717 C326.662665,427.66947 337.660872,429.148966 348.235194,432.372411 L368.358346,438.512681 L389.197181,438.066302 L378.901447,343.296641 C383.870394,338.384064 387.792835,330.541411 387.152804,318.344606 L371.891126,244.410175 L370.973107,240 C370.973107,240 387.608511,252.75523 406.263675,272.097108 C424.522573,291.006463 444.718375,316.223554 453.192482,341.956902 C453.192482,341.998468 453.202689,342.040636 453.230908,342.096659 C454.569209,346.868877 455.692566,351.711575 456.627996,356.581984 C458.937151,368.513732 460.088126,380.640658 459.993863,392.488673 Z" id="Path" fill="#FFFFFF"></path>
            <path d="M284.595338,626 C274.800027,626 265.043457,623.21908 257.628875,617.483432 C255.332891,615.78731 253.762082,613.953341 252.493328,611.657883 C251.886796,610.543118 251.392248,609.350439 251,608.091833 C259.869169,613.689633 270.386629,617.291644 280.9737,617.291644 C296.290148,617.291644 311.74703,609.751994 322.562307,589.812676 C345.714035,547.090789 319.449139,529.610548 318.915851,509.145612 C318.369246,488.680077 356.595293,493.803203 411.62143,468.81148 C431.870037,459.623656 444.332999,442.709188 452,425 C451.056909,428.908272 449.924958,432.754212 448.585382,436.524038 C444.329367,448.60306 437.69686,459.759106 428.75021,468.575941 C427.63884,469.682915 426.439698,470.692797 425.293825,471.762013 C424.052311,472.737732 422.888883,473.737425 421.595311,474.695164 C418.940977,476.580077 416.339911,478.55489 413.577224,480.228237 C408.122672,483.706185 402.446574,486.760403 396.473262,489.079235 C390.513267,491.443017 384.308118,493.136741 377.797886,494.514615 C371.305814,495.920658 364.465682,497.104347 357.528093,499.086352 C355.799901,499.617364 354.064444,500.155568 352.346542,500.756103 L349.784216,501.741412 L348.504567,502.234665 C348.076605,502.397685 347.463414,502.709939 346.958576,502.95327 C344.844188,504.025482 342.807282,505.587353 341.237078,507.499835 C339.655979,509.405724 338.562163,511.571725 337.850305,513.671799 C336.433853,517.916898 336.329132,521.856335 336.381795,525.570422 C336.490148,529.280913 336.900556,532.803811 337.373917,536.233213 C338.317008,543.068044 339.582129,549.642163 339.929584,555.813529 C340.248588,562.141321 339.950165,568.53504 338.90538,574.751955 C337.885414,580.979059 336.090636,587.028759 333.566445,592.738636 C332.248055,595.564506 330.849763,598.358612 329.153047,600.971718 C328.360681,602.314231 327.431513,603.566844 326.537453,604.84343 C325.636735,606.114023 324.595582,607.204815 323.638569,608.397494 C315.635009,617.555352 304.241044,623.830403 292.00992,625.466591 C289.558974,625.820199 287.077156,626 284.595338,626 Z" id="Path" fill="#B9AFBE"></path>
            <path d="M366.72708,440.808151 C362.041021,440.208332 357.420694,439.381472 352.828451,438.464278 C350.530239,438.014413 348.236209,437.54347 345.958911,437.023747 C343.757503,436.598574 341.574022,436.155334 339.3762,435.799416 C330.599849,434.387191 321.761351,433.832538 313.008902,434.474514 C304.270197,435.15443 295.646223,436.912335 287.447712,439.890957 C279.2492,442.852115 271.362017,446.911737 264.90061,452.37395 C263.267481,453.730169 261.782546,455.21948 260.453575,456.785877 C259.782516,457.574194 259.021225,458.275188 258.418886,459.12975 L256.601708,461.692835 L255.688041,462.969559 L254.909421,464.357696 L253.338438,467.127345 C252.403855,469.04183 251.521261,471.005697 250.718739,472.997267 C247.707638,481.088809 246.19163,489.867495 246.084667,498.60824 C245.942448,507.338144 247.524187,516.11683 250.794629,523.657333 C251.781199,525.394161 252.608221,527.288169 253.819473,528.749778 L254.65008,529.928339 C254.920177,530.319185 255.366554,530.817831 255.716126,531.261071 L257.95518,533.984951 L266.904823,544.887696 L269.534681,548.089745 L267.154006,551.604953 C266.392118,552.728109 265.520279,554.172253 264.720745,555.539312 C263.914637,556.934676 263.125262,558.354128 262.360386,559.787432 C260.827647,562.658256 259.387529,565.584484 258.05557,568.549255 C255.4042,574.474582 253.113158,580.557692 251.576834,586.696208 C250.07457,592.799794 249.188987,599.061164 249.943107,604.710068 C250.310008,607.528497 251.074884,610.154214 252.293307,612.430638 C253.545791,614.737173 255.096457,616.579992 257.362999,618.284299 C266.537922,625.511042 279.34242,628.064491 291.303164,626.305983 C303.377444,624.661899 314.6253,618.356567 322.526227,609.160537 C323.470968,607.95608 324.49877,606.860024 325.387938,605.583299 C326.270532,604.300552 327.187786,603.041895 327.969991,601.692903 C329.644949,599.067186 331.025311,596.259597 332.326794,593.420692 C334.818616,587.68326 336.590379,581.603763 337.597864,575.346609 C338.628653,569.100294 338.92325,562.67572 338.608336,556.317391 C338.265337,550.115642 337.016439,543.509797 336.085442,536.642585 C335.61815,533.196633 335.213005,529.656734 335.106042,525.927735 C335.054054,522.196327 335.15803,518.237277 336.555721,513.971692 C337.25845,511.861483 338.33824,509.685029 339.899064,507.770545 C341.449132,505.848833 343.459919,504.279426 345.547193,503.201437 C346.045557,502.957534 346.650885,502.643171 347.073359,502.479365 L348.336599,501.984333 L350.866067,500.993667 C352.56194,500.390234 354.275142,499.849433 355.981174,499.315858 C362.829799,497.324288 369.582217,496.134887 375.991039,494.722661 C382.417788,493.338138 388.543367,491.635638 394.426934,489.260448 C400.323648,486.931028 405.92696,483.861469 411.311566,480.366737 C414.038826,478.685917 416.606537,476.700972 419.226834,474.806963 C420.503818,473.844602 421.652327,472.840085 422.877921,471.860259 C424.0091,470.785883 425.192865,469.771128 426.289983,468.65821 C435.121908,459.799428 441.669363,448.589546 445.870802,436.45163 C450.114069,424.310703 452.252733,411.336291 452.792329,398.288407 C453.321767,385.226673 452.259307,372.056537 449.851143,359.14837 C448.642879,352.691878 447.09281,346.302233 445.206316,340.017376 L444.497013,337.659652 C444.255002,336.896026 443.984905,336.212496 443.732137,335.486811 C443.272017,334.049894 442.586617,332.612977 441.991448,331.172446 C441.36162,329.735529 440.614074,328.308849 439.935844,326.875545 L437.627473,322.620198 C431.173237,311.333833 423.251395,300.567192 414.959664,290.155865 C398.223228,269.312735 378.697385,250.998363 363.802625,227.94385 C363.231359,227.061585 363.476956,225.882422 364.352977,225.307293 C364.982805,224.891756 365.775168,224.912834 366.377508,225.278989 C372.305294,228.927289 377.603851,233.210338 382.732702,237.685499 C387.872308,242.149819 392.648001,246.983907 397.330474,251.905319 C406.698409,261.757778 415.135944,272.472628 423.635626,283.15556 C432.079734,293.898113 440.285416,304.899021 447.245188,317.088729 L449.768082,321.741547 C450.543117,323.359735 451.35998,324.929143 452.090197,326.585873 C452.789342,328.267295 453.55362,329.889097 454.142215,331.674704 C454.446971,332.543118 454.785787,333.439234 455.052298,334.283558 L455.807015,336.787625 C457.810631,343.456704 459.450931,350.232979 460.735086,357.079715 C463.289053,370.773188 464.424416,384.75573 463.856735,398.74851 C463.27531,412.728041 460.994426,426.759364 456.308965,440.177016 C451.671308,453.566363 444.320733,466.328188 434.076777,476.593173 C432.806366,477.876522 431.436163,479.065924 430.11735,480.304105 C428.719659,481.4375 427.32137,482.644366 425.912924,483.707901 C423.075115,485.762705 420.303038,487.893389 417.302694,489.752469 C411.405382,493.58204 405.144755,497.010527 398.527983,499.626608 C391.938698,502.29448 385.061987,504.181262 378.354983,505.625407 C371.647979,507.097253 365.148926,508.258952 359.085493,510.030708 C357.586815,510.501651 356.091722,510.972594 354.621129,511.495328 L352.457965,512.343266 L351.37459,512.764826 C351.011274,512.904543 350.883396,513.009331 350.62047,513.120743 C348.855281,514.062628 347.820906,515.314661 347.05603,517.526045 C346.304898,519.70551 346.107704,522.628727 346.177021,525.635052 C346.263069,528.676306 346.612641,531.871128 347.059018,535.128583 C347.927869,541.668785 349.239511,548.393268 349.668559,555.717572 C350.021716,562.874456 349.693059,570.048804 348.526623,577.160521 C346.235581,591.369501 340.487062,605.252074 330.901018,616.459547 C321.255816,627.715198 307.495821,635.351456 292.895061,637.350855 C285.613205,638.404755 278.127582,638.199997 270.870823,636.555913 C263.627211,634.923874 256.56705,631.816374 250.538873,627.070814 L249.389767,626.215649 L248.247832,625.143682 C247.482956,624.439075 246.728239,623.722423 246.081082,622.891347 C245.406438,622.084361 244.710879,621.295442 244.164112,620.398121 C243.596431,619.518868 242.976762,618.657681 242.540544,617.718204 C240.568001,614.032566 239.46431,610.03979 238.958775,606.155416 C237.965631,598.32765 239.145811,590.944328 240.841683,583.954864 C242.599702,576.961786 245.108853,570.341487 247.970564,563.934378 C249.410682,560.732931 250.957165,557.593514 252.604635,554.503479 C253.431657,552.95515 254.283179,551.423682 255.169359,549.896431 C256.075856,548.347499 256.937537,546.893117 258.072899,545.218922 L258.318496,551.936781 L249.451913,541.134608 L247.233774,538.43542 C246.856116,537.95725 246.5173,537.591095 246.105582,537.026205 L244.890744,535.352009 C243.146469,533.151466 242.04218,530.737734 240.762208,528.376396 C239.820455,525.942188 238.674934,523.53207 238.05885,521.041855 C237.712864,519.803673 237.311304,518.572116 237.02089,517.327309 L236.273344,513.581448 C235.993088,512.332426 235.830552,511.080393 235.699089,509.824746 L235.259286,506.06142 C235.162481,503.550127 234.951543,501.035823 235.010104,498.527541 C235.134993,488.504049 236.841025,478.511271 240.374392,469.010514 C241.326304,466.660016 242.329606,464.316142 243.43031,462.021049 L245.285133,458.647967 L246.219716,456.967147 L247.316834,455.366424 L249.531389,452.178226 C250.27535,451.121315 251.213518,450.186656 252.050698,449.189366 C252.92672,448.226402 253.753742,447.187558 254.677568,446.298067 C255.587651,445.387497 256.535977,444.52631 257.494462,443.675361 C265.219109,436.915948 274.085692,432.064395 283.371163,428.611217 C288.018381,426.881014 292.80483,425.513955 297.663583,424.547981 C302.529507,423.630787 307.451005,423.030967 312.38266,422.825005 C322.238801,422.535333 332.146929,423.543463 341.518449,426.39622 C343.878808,427.030969 346.166264,427.913836 348.450733,428.754547 C350.634214,429.598269 352.797378,430.491374 354.953372,431.408568 C359.279102,433.218867 363.574358,435.123114 367.799698,437.250787 C368.723525,437.714503 369.101182,438.847897 368.636879,439.782556 C368.273563,440.514866 367.491358,440.905712 366.72708,440.808151 Z" id="Path" fill="#371A45"></path>
            <path d="M369.17534,438 C369.197404,437.346755 368.784026,436.713406 368.051367,436.402811 C366.706103,435.829702 365.356296,435.275936 364,434.735433 C371.697142,434.325359 379.319007,433.221143 386.700112,431.569793 C387.51973,431.387415 388.335455,431.198405 389.15053,431 L390,437.622533 L369.17534,438 Z" id="Path" fill="#B9AFBE"></path>
            <path d="M359.564616,443 C342.065454,443 329.681292,440.698285 320,433.588043 C326.271292,433.618085 332.563828,434.160005 338.824194,435.113853 C341.056657,435.455297 343.274553,435.879936 345.510658,436.288398 C347.82385,436.786987 350.154036,437.238202 352.488472,437.670351 C357.153094,438.550249 361.846244,439.342908 366.606162,439.918336 C366.683248,439.928736 366.763976,439.935091 366.841669,439.935091 C367.540908,439.935091 368.215867,439.567071 368.546062,438.935024 C368.676563,438.69064 368.739688,438.432968 368.746972,438.175296 L388.224881,437.7807 L387.430347,430.857645 C395.723481,428.625837 403.751973,425.584615 411.398069,421.796953 C419.747044,417.674781 427.642001,412.608581 434.662303,406.485696 C441.68564,400.392276 447.890164,393.279145 452.586956,385.221987 C452.99788,384.479014 453.427013,383.742973 453.848863,383 C453.908346,383.926694 453.958119,384.853967 454,385.777195 C440.835264,421.739757 395.019994,443 359.564616,443 Z" id="Path" fill="#B9AFBE"></path>
            <path d="M311.117902,424 C310.823302,423.437986 310.53141,422.860838 310.239517,422.274747 C308.922482,419.609823 307.840477,416.836899 307,414 C309.013461,417.51792 311.340477,420.884502 314,423.860356 C313.560808,423.868611 313.124865,423.880305 312.686214,423.896815 C312.161999,423.924331 311.641575,423.960102 311.117902,424 Z" id="Path" fill="#2D5394"></path>
            <path d="M366.037322,441 C365.959842,441 365.879336,440.993486 365.802461,440.982827 C361.055606,440.393035 356.375335,439.58059 351.723513,438.678137 C349.395484,438.235793 347.071692,437.772723 344.764849,437.26228 C342.53488,436.843623 340.323071,436.407792 338.096734,436.058417 C331.853548,435.080759 325.57828,434.525313 319.324198,434.49452 C317.195922,432.889172 315.197788,431.041038 313.304978,428.928208 C311.811673,427.254761 310.381322,425.41314 309,423.389726 C309.585337,423.355381 310.167041,423.324589 310.752983,423.30031 C311.243286,423.28669 311.730562,423.276624 312.221469,423.269518 C312.978715,423.924448 313.764409,424.555691 314.570685,425.162656 C318.619615,428.228865 323.250251,430.567901 327.983184,432.138312 C332.726407,433.719382 337.536215,434.597556 342.258253,435.13583 C346.983922,435.653379 351.667219,435.88669 356.277274,435.890243 C356.473395,435.893796 356.66649,435.893796 356.862611,435.893796 C358.948515,435.893796 361.030788,435.828659 363.110034,435.698383 C364.375136,436.277517 365.634184,436.870862 366.888996,437.484933 C367.572393,437.817727 367.957976,438.496344 367.937396,439.196278 C367.930132,439.460382 367.86718,439.724485 367.737038,439.974969 C367.407748,440.622793 366.734641,441 366.037322,441 Z M452.956467,385.490243 C452.914701,384.54397 452.865065,383.593552 452.805745,382.643726 C453.535145,381.32676 454.239728,379.996174 454.762112,378.573212 L455,378 C454.52362,380.469311 453.868067,382.914936 453.012761,385.332729 C452.995207,385.387207 452.977653,385.438725 452.956467,385.490243 Z" id="Shape" fill="#371A45"></path>
            <path d="M455.879944,356.75575 C455.575346,361.552429 454.675889,366.280091 453.07108,370.911367 C440.193187,408.043087 395.032769,430 360.097261,430 C335.344856,430 321.007883,425.106935 310.008341,407.657544 C297.860287,388.388127 303.989261,362.792949 329.710405,350.788163 C331.799583,349.809431 336.338082,349.285854 336.338082,349.285854 L329.171089,335.337288 L326.777313,330.664364 C326.777313,330.664364 330.181037,331.43664 335.009799,332.470109 C345.857043,334.813116 363.87128,338.493624 366.475885,337.749312 C374.345243,335.488411 387.392157,327.659746 386.260967,306.378723 L371.079484,233.355208 L370.166289,229 C370.166289,229 386.714279,241.597975 405.271416,260.701394 C429.89601,286.034784 458.06946,322.80833 455.879944,356.75575 Z" id="Path" fill="#FFFFFF"></path>
            <path d="M355.799107,425 C347.66868,425 339.604188,423.966858 331.856186,421.79702 C324.406092,419.335675 318.396985,414.565623 313.74195,408.020194 C311.728524,405.212274 310.186836,402.466606 309,399.523407 C318.466517,406.560866 330.554263,408.859398 347.512832,408.859398 C382.574849,408.859398 427.895206,386.770147 440.826325,349.413017 C442.433349,344.7543 443.336064,339.998015 443.64536,335.172295 C443.756252,333.456178 443.787421,331.729885 443.749059,330 C444.009803,330.745227 444.259758,331.494046 444.498923,332.246456 C447.029642,340.174595 448.390907,348.373291 447.901187,356.367274 C447.901187,358.385073 447.501978,360.333438 447.193281,362.295571 C446.994876,364.288829 446.24561,366.143217 445.773274,368.067041 C445.627616,368.54231 445.533509,369.024164 445.349489,369.495841 L444.769858,370.903094 L443.614191,373.724781 C442.947645,375.648604 441.843527,377.382081 440.90245,379.191576 C436.934941,386.329595 431.61276,392.770871 425.454399,398.376536 C406.656234,415.127087 380.92227,425 355.799107,425 Z" id="Path" fill="#B9AFBE"></path>
            <path d="M369.690976,229.148212 C374.044684,230.950956 377.974451,233.245465 381.792337,235.729988 C385.62776,238.187025 389.231559,240.927888 392.723476,243.800207 C399.6553,249.600415 406.239988,255.818893 412.379569,262.466397 C418.498588,269.131827 424.333972,276.070327 429.902654,283.244253 C435.447145,290.431325 440.735821,297.871748 445.369535,305.793183 C450.003855,313.700276 454.055784,322.061491 456.938702,330.979006 C459.807106,339.873216 461.478073,349.413952 460.878751,359.099888 C460.850931,361.522268 460.395543,363.924333 460.000026,366.329384 C459.723043,368.754752 458.850971,371.06659 458.234715,373.426827 C458.055704,374.008222 457.919027,374.613518 457.701917,375.174598 L457.019136,376.838714 L455.646318,380.160972 C454.823232,382.420825 453.555038,384.455409 452.434408,386.566477 C447.754731,394.899608 441.572817,402.256976 434.575073,408.55851 C427.580354,414.891714 419.714167,420.130843 411.395615,424.394209 C403.077064,428.671317 394.303124,432.028232 385.231639,434.381299 C376.177692,436.731378 366.731858,438.056696 357.250342,438 C352.644446,437.994553 347.965375,437.759127 343.243969,437.236289 C338.526192,436.693136 333.720724,435.807599 328.981781,434.212198 C324.253118,432.626955 319.626661,430.266718 315.581383,427.173313 C311.521592,424.093054 308.089547,420.369855 305.227796,416.438715 C302.429545,412.610948 299.886505,408.022528 298.2615,403.274567 C296.562713,398.505692 295.858766,393.377106 296.023262,388.300504 C296.222835,383.234061 297.203765,378.132961 299.252711,373.468057 C301.26658,368.806737 304.033383,364.494972 307.39588,360.747274 C308.243157,359.823495 309.16482,358.975602 310.05443,358.093053 C310.50619,357.660442 310.940412,357.206918 311.40971,356.795221 L312.86659,355.625858 C313.84752,354.864009 314.793374,354.0442 315.812404,353.341507 L318.922714,351.324251 C319.945372,350.617972 321.044836,350.074819 322.130995,349.510752 L323.763258,348.662859 L324.582715,348.240407 L324.989118,348.029479 L325.195343,347.925509 L325.535221,347.776725 C327.359799,347.032802 328.55784,346.814704 329.864134,346.52789 C331.156518,346.267965 332.298316,346.088109 333.643314,345.918411 L329.307749,353.936645 L314.190422,324.722286 L325.867842,327.317949 C332.452531,328.785479 339.107372,330.207596 345.723508,331.512001 C349.033391,332.173465 352.343273,332.788919 355.618079,333.346413 C357.264251,333.623069 358.878976,333.844752 360.472533,334.055679 C361.211557,334.11125 362.045529,334.208049 362.703514,334.235536 L363.610662,334.260034 L363.726777,334.263619 L363.670534,334.249279 C363.617919,334.242706 363.561676,334.242706 363.509666,334.249279 C363.411089,334.256449 363.271389,334.312019 363.225426,334.349663 C365.754556,333.498783 368.195995,332.190196 370.265503,330.563723 C372.384602,328.979078 374.167451,327.089693 375.736818,324.933811 C377.252966,322.743271 378.53144,320.275479 379.694405,317.524458 C380.920265,314.773437 381.715531,311.721262 382.98312,308.42649 L383.049644,308.25022 C383.43488,307.246372 384.570025,306.745046 385.582403,307.125671 C386.118225,307.326441 386.517371,307.741723 386.713315,308.232891 C387.393071,309.952578 388.037147,311.727835 388.30022,313.579576 C388.426011,314.503355 388.601393,315.437889 388.678198,316.386167 C388.713275,317.334444 388.720532,318.289295 388.709646,319.254901 C388.538497,323.099398 387.543658,327.07595 385.585427,330.692192 C383.704606,334.346676 380.85374,337.557794 377.540229,340.042317 C374.202528,342.53401 370.419719,344.233381 366.419799,345.305945 C365.954129,345.402744 365.386859,345.482813 364.864946,345.531213 L364.066051,345.589771 L363.694724,345.600526 L363.488499,345.586185 L361.842327,345.472057 C360.80213,345.375258 359.947596,345.233644 358.990857,345.112345 C357.208613,344.849433 355.453583,344.565607 353.737258,344.264453 C350.294327,343.675887 346.900382,343.043104 343.527604,342.371482 C336.771162,341.038994 330.095759,339.609706 323.378022,338.118275 L329.611947,330.197438 L342.925258,355.926415 L334.953237,356.916519 C334.078141,357.027062 333.00952,357.193175 332.109629,357.376616 C331.230299,357.546314 330.23546,357.819385 329.997182,357.933513 L327.44749,359.259428 C326.554251,359.719525 325.644079,360.155721 324.838531,360.733531 L322.334197,362.34626 C321.517763,362.906742 320.789625,363.560438 320.008268,364.159161 L318.852561,365.072782 C318.488492,365.39485 318.158895,365.750977 317.808735,366.086788 C317.125955,366.775738 316.397212,367.426447 315.74588,368.135713 C313.171392,371.014605 311.112165,374.257392 309.605694,377.714691 C308.064751,381.168405 307.381971,384.922676 307.227756,388.653644 C307.108617,392.390587 307.595453,396.183697 308.887837,399.755124 C310.159055,403.367781 311.903804,406.630884 314.334357,409.981226 C319.030967,416.514601 325.093742,421.276305 332.610375,423.733342 C364.581311,432.588713 401.942523,422.48391 427.044531,400.353848 C433.257894,394.757994 438.627608,388.327991 442.630552,381.202464 C443.580034,379.396136 444.694012,377.666291 445.366512,375.745237 L446.5325,372.928488 L447.117308,371.523699 C447.302971,371.052847 447.397919,370.571836 447.544877,370.097996 C448.021433,368.176942 448.777995,366.325799 448.977567,364.33603 C449.289022,362.377332 449.691795,360.432377 449.691795,358.418108 C450.185889,350.438116 448.812466,342.253769 446.259146,334.339505 C443.699173,326.407913 439.996797,318.721905 435.671513,311.343624 C426.995545,296.563759 415.868462,282.995083 403.609258,270.574858 C397.522291,264.318138 391.361544,258.109817 385.154834,251.90807 C382.051781,248.807495 379.007996,245.634021 376.041015,242.347018 C373.064359,239.079732 370.128826,235.702502 367.421895,232.079089 L367.393471,232.040847 C366.759677,231.193552 366.941711,229.999093 367.799874,229.372883 C368.36412,228.957601 369.085605,228.899043 369.690976,229.148212 Z" id="Path" fill="#371A45"></path>
            <path d="M139.104279,274.608949 C293.847692,420.130857 503.800043,212.737561 370.739311,57.3865354 C215.877528,-95.3314045 -0.942319041,119.250181 139.104279,274.608949 Z" id="Path" fill="#FFFFFF"></path>
            <path d="M139.104279,274.608949 C293.847692,420.130857 503.800043,212.737561 370.739311,57.3865354 C215.877528,-95.3314045 -0.942319041,119.250181 139.104279,274.608949 Z" id="Path" fill="#FFFFFF"></path>
            <path d="M228,331.5349 C228.031813,330.1888 228.058887,328.8273 228.078516,327.4651 C231.375525,327.988 234.68404,328.4094 238,328.7335 C234.5155,329.6827 231.187356,330.6151 228,331.5349 Z" id="Path" fill="#B9AFBE"></path>
            <path d="M221.1393,333 C221.2079,330.693817 221.2604,328.358643 221.2933,326 C223.478,326.41209 225.6634,326.787595 227.8607,327.119613 C227.8404,328.462873 227.8124,329.806134 227.7795,331.133517 C225.4933,331.765112 223.2799,332.384282 221.1393,333 Z" id="Path" fill="#371A45"></path>
            <path d="M222,340 C222.091092,338.045559 222.167706,336.066885 222.227428,334.063371 C224.07219,333.522961 225.97969,332.978917 227.94993,332.424573 C230.79067,331.628499 233.756887,330.821519 236.862457,330 C241.638448,330.452563 246.439172,330.680964 251.253167,330.680964 C252.937462,330.680964 254.628393,330.653096 256.315705,330.596753 C256.878544,330.579183 257.437161,330.557979 258,330.53011 C243.913332,333.842239 231.995978,337.042288 222,340 Z" id="Path" fill="#371A45"></path>
            <path d="M341.753432,330 C337.768463,329.160398 333.783494,328.281193 329.815936,327.384927 L323,313.862951 C338.018837,306.269368 352.105226,296.247764 364.724795,284.038809 C369.029186,279.871264 373.097614,275.520323 376.916267,271 L382,295.902297 C370.511016,309.381622 356.879744,320.969711 341.753432,330 Z" id="Path" fill="#B9AFBE"></path>
            <path d="M330,326 C329.12179,325.816654 328.247946,325.633894 327.373478,325.447033 L322.66682,324.452981 L318.898875,317.539134 C314.831539,318.19754 310.865247,318.858874 307,319.520209 C312.400244,317.610598 317.714414,315.435633 322.919431,313 L330,326 Z" id="Path" fill="#371A45"></path>
            <path d="M381.666922,294 L376,269.414233 C376.445698,268.943825 376.895411,268.470409 377.333748,268 L383,292.592384 C382.558317,293.062792 382.11262,293.533201 381.666922,294 Z" id="Path" fill="#B9AFBE"></path>
            <path d="M381.520941,294 L376,268.965843 C380.580679,263.841072 384.821638,258.50749 388.707228,253 C393.163365,257.252169 397.600592,261.508013 402,265.78835 C401.871545,266.008185 401.743091,266.231693 401.611376,266.451527 C395.950243,276.254051 389.194312,285.488925 381.520941,294 Z" id="Path" fill="#B9AFBE"></path>
            <path d="M328.692722,335 L323,323.984326 L327.519916,324.989844 C328.359689,325.178268 329.198862,325.363729 330.042228,325.54919 C334.000299,326.420798 337.975741,327.275222 341.951183,328.091725 C339.515723,329.50905 337.046122,330.861197 334.534591,332.144611 C332.60587,333.132947 330.662773,334.094026 328.692722,335 Z M402.106918,266.247284 C398.065588,262.105518 393.989518,257.987454 389.896077,253.872944 C390.974843,252.26364 392.019467,250.643671 393.03534,249 C396.816712,252.524352 400.858041,256.439772 405,260.67101 C404.077568,262.551099 403.116801,264.408079 402.106918,266.247284 Z" id="Shape" fill="#371A45"></path>
            <path d="M139.104279,274.608949 C293.847692,420.130857 503.800043,212.737561 370.739311,57.3865354 C215.877528,-95.3314045 -0.942319041,119.250181 139.104279,274.608949 Z" id="Path" fill="#FFFFFF"></path>
            <path d="M138.767912,272.512655 C215.935327,345.653218 303.3182,327.586714 355.718328,277.221192 C406.911245,228.012874 431.317268,138.882854 364.000451,59.4308216 C287.190706,-16.9104111 196.362939,2.09814475 144.451687,52.0832451 C92.0234009,102.560199 67.8983612,193.051564 138.767912,272.512655 Z M250.518465,329 C208.756768,329 168.309523,311.507266 133.22373,278.211096 L132.997865,277.973133 C99.698624,240.692585 83.9599533,197.427314 87.4851279,152.85868 C90.632263,113.095218 108.921353,75.2566034 138.983592,46.3117238 C168.982924,17.4262144 207.112206,0.994561763 246.340857,0.0445377208 C290.535548,-1.03665616 333.223472,17.5860848 369.680632,53.8696021 L369.905898,54.1151757 C401.588136,91.4495979 416.279559,134.350675 412.386529,178.181864 C408.902693,217.379408 390.717848,254.603787 361.179832,282.995733 C331.710714,311.321847 294.175153,327.632616 255.491094,328.916048 C253.832153,328.972217 252.170217,329 250.518465,329 Z" id="Shape" fill="#371A45"></path>
            <path d="M242.678915,318 C241.337933,318 239.989808,317.979009 238.642279,317.933438 C232.806357,317.347014 226.911511,316.378034 221,315.006112 C223.199258,315.093056 225.381256,315.13503 227.559683,315.13503 C249.345138,315.13503 270.048523,310.849572 288.97643,302.299645 C320.576114,288.02698 345.560761,262.540892 359.324726,230.540573 C361.800157,224.793252 363.861329,218.931404 365.515981,213 C367.339669,214.836624 369.238948,216.462184 371.192984,217.885673 C362.844135,245.802605 346.119057,270.298727 324.964512,287.718177 C303.802825,305.137029 274.839871,318.002994 242.678915,318 Z M325.698392,298.16709 C327.291143,296.962461 328.863062,295.718857 330.417721,294.441074 C353.416786,275.504595 370.314471,250.359089 379.069841,222.417572 C382.982081,224.126479 387.005028,225.14043 391,225.501399 C382.410095,244.542212 370.197217,261.523343 355.84341,275.313317 C346.780918,284.019745 336.650044,291.742801 325.698392,298.16709 Z" id="Shape" fill="#B9AFBE"></path>
            <path d="M139.638608,271.174639 C216.220633,343.054371 302.90761,325.319769 354.877394,275.816473 C405.66101,227.442887 429.873257,139.840795 363.110303,61.7161559 C286.88623,-13.3031283 196.783689,5.35804013 145.294378,54.4830063 C93.2897593,104.098014 69.3694004,193.0476 139.638608,271.174639 Z M250.516811,330 C208.241774,330 167.315667,312.477182 131.843531,279.113813 L131.519812,278.787438 C97.83924,241.417585 81.9223637,198.030207 85.491679,153.308533 C88.677817,113.417679 107.185645,75.4646718 137.607407,46.4426803 C167.969711,17.4733648 206.568526,0.994242246 246.294652,0.0411514034 C291.091572,-0.996716954 334.233262,17.6140537 371.096969,53.9680669 L371.416483,54.3106399 C403.465849,91.7305891 418.32208,134.754396 414.377395,178.732128 C410.853725,218.054228 392.4504,255.392883 362.557158,283.863638 C332.730582,312.272598 294.733559,328.627308 255.556975,329.916607 C253.87712,329.972402 252.193662,330 250.516811,330 Z" id="Shape" fill="#293856"></path>
            <path d="M139.638608,271.174639 C216.220633,343.054371 302.90761,325.319769 354.877394,275.816473 C405.66101,227.442887 429.873257,139.840795 363.110303,61.7161559 C286.88623,-13.3031283 196.783689,5.35804013 145.294378,54.4830063 C93.2897593,104.098014 69.3694004,193.0476 139.638608,271.174639 Z M250.516811,330 C208.241774,330 167.315667,312.477182 131.843531,279.113813 L131.519812,278.787438 C97.83924,241.417585 81.9223637,198.030207 85.491679,153.308533 C88.677817,113.417679 107.185645,75.4646718 137.607407,46.4426803 C167.969711,17.4733648 206.568526,0.994242246 246.294652,0.0411514034 C291.091572,-0.996716954 334.233262,17.6140537 371.096969,53.9680669 L371.416483,54.3106399 C403.465849,91.7305891 418.32208,134.754396 414.377395,178.732128 C410.853725,218.054228 392.4504,255.392883 362.557158,283.863638 C332.730582,312.272598 294.733559,328.627308 255.556975,329.916607 C253.87712,329.972402 252.193662,330 250.516811,330 Z" id="Shape" fill="#371A45"></path>
            <path d="M168.99808,299.434703 C346.832241,356.30148 438.754548,144.350723 295.750591,65.4389574 C130.168327,-13.2742642 11.3655338,193.927578 168.99808,299.434703 Z" id="Path" fill="#371A46"></path>
            <path d="M226.243348,306 C209.03974,305.996373 190.412272,303.125938 170.536311,296.747998 C152.17937,284.174052 137.832456,270.353772 127,255.893401 C132.213632,260.258591 137.815099,264.497454 143.82535,268.582793 C164.314786,275.240584 183.656277,278.251247 201.622389,278.251247 C302.484112,278.251247 359.961546,183.305652 333.333779,105 C340.58175,114.108148 346.134738,123.768744 350.162719,133.718258 C346.003066,144.830694 344.290725,158.689657 346.283768,175.016506 L346.335838,175.370097 C348.387535,186.347745 351.757153,195.410561 356,202.706025 C354.242172,211.239965 351.62189,219.522462 348.255862,227.367352 C329.749893,270.490373 286.771395,306 226.243348,306 Z" id="Path" fill="#2A1A3C"></path>
            <path d="M138.949436,271.748919 C207.474508,339.439432 281.691286,322.806899 324.423636,287.991857 C373.540788,247.975809 399.041458,170.645066 352.752093,100.264005 C329.846171,67.3194998 291.878186,44.754975 248.647842,38.4510967 C205.396422,32.1434366 162.412967,42.9471092 130.670209,68.0926872 C75.80535,129.938672 90.6169109,223.260226 138.949436,271.748919 Z M241.624138,327 C240.134973,327 238.649421,326.971786 237.163267,326.923162 C200.056986,325.651124 163.968371,308.702233 132.797674,277.909806 L132.776598,277.885193 C81.5741329,226.528264 65.9917952,127.541671 124.403432,62.040455 L124.940567,61.5326006 C158.590998,34.7248499 204.140899,23.1796257 249.909989,29.850948 C295.519504,36.5021003 335.639041,60.3968315 359.978126,95.4051708 C382.67088,129.905656 390.727305,168.194038 383.33688,206.224892 C376.637745,240.698963 357.676635,272.124707 329.940712,294.722429 C304.276252,315.627903 273.077252,327 241.624138,327 Z" id="Shape" fill="#371A45"></path>
            <path d="M169.707045,293.801549 C259.609338,322.416971 323.805578,279.900675 347.592214,224.923036 C369.176073,175.036264 360.016906,107.500074 290.942446,69.0065465 C209.374402,30.0209135 143.991406,63.1662112 115.360698,113.337409 C85.9428131,164.888734 91.3937424,240.596473 169.707045,293.801549 Z M225.156876,314 C205.970492,314 185.954996,310.718899 165.557892,304.150697 L164.808457,303.907675 L164.156071,303.466635 C126.161314,277.843686 101.187922,244.415223 91.9382962,206.789374 C83.6459823,173.072884 88.5451691,137.923463 105.722875,107.818704 C122.514781,78.395607 149.389618,56.7766456 181.399674,46.9448645 C216.962211,36.0212234 256.549293,40.206427 295.886563,59.0480338 L296.1849,59.2022479 C329.72438,77.8483568 352.89038,104.964242 363.181188,137.616235 C372.496712,167.185745 370.577894,199.75913 357.778784,229.343641 C343.925312,261.367376 318.77819,286.872114 286.973015,301.155223 C267.92202,309.711407 247.084002,314 225.156876,314 Z" id="Shape" fill="#371A45"></path>
            <path d="M434.607737,157.549795 C441.01188,232.244541 367.068194,244.986204 353.802385,174.29483 C344.228467,96.2567266 423.267118,82.6284308 434.607737,157.549795 Z" id="Path" fill="#FFFFFF"></path>
            <path d="M395.160442,214 C380.455789,214 364.372866,202.645942 358,176.141762 C359.763713,177.038104 361.510019,177.450669 363.223997,177.450669 C365.748027,177.450669 368.203673,176.5608 370.557984,175 L370.587203,175.187155 C374.868108,196.640509 385.413706,208.972127 397,213.938792 C396.391373,213.979401 395.775907,214 395.160442,214 Z" id="Path" fill="#B9AFBE"></path>
            <path d="M356.796492,173.350917 C362.82189,204.867103 381.164604,216.840763 396.711242,214.719075 C413.2158,212.463366 429.57933,193.838135 426.560954,158.258458 C421.414596,124.942233 402.058387,112.095953 386.203995,114.274227 C368.293929,116.731264 352.46344,137.809957 356.796492,173.350917 Z M393.139507,226 C373.661391,226 352.629567,210.876567 345.881098,175.224222 L345.829108,174.875769 C340.541124,132.137628 361.378734,106.536796 384.695106,103.337585 C405.764577,100.447514 431.30275,115.933099 437.539094,156.776493 L437.580924,157.132689 C441.287115,200.009616 419.774239,222.712038 398.21296,225.654526 C396.541529,225.885636 394.845597,226 393.139507,226 Z" id="Shape" fill="#371A45"></path>
            <path d="M435.675475,160.62425 C440.641052,219.799262 387.137838,230.049182 376.733357,174.161148 C368.844977,111.686818 427.005557,100.614272 435.675475,160.62425 Z" id="Path" fill="#FFFFFF"></path>
            <path d="M382.599669,171.960173 C387.230905,196.66092 400.097286,206.216171 410.818188,204.728919 C422.936777,203.047286 434.009755,187.022277 431.769329,159.646395 C427.899448,133.131428 414.209789,122.720062 403.11676,124.267308 C390.189047,126.071929 379.009915,143.031045 382.599669,171.960173 Z M408.642633,216 C393.672647,216 377.316179,203.425849 371.827459,173.860784 L371.77969,173.534417 C367.223351,137.331611 383.347461,115.804549 401.630612,113.252402 C417.926337,110.966029 437.691508,124.075327 442.60641,158.201139 L442.644153,158.538305 C445.656551,194.527532 429.026443,213.422056 412.297259,215.746825 C411.091828,215.913609 409.872244,216 408.642633,216 Z" id="Shape" fill="#371A45"></path>
            <path d="M311.821212,170 C302.367983,170 292.809483,162.606023 291.099129,148.548306 C289.866125,129.980552 300.342421,121 311.001428,121 C321.232696,121 331.629131,129.267252 332,145.265997 C331.327838,162.028231 321.632001,170 311.821212,170 Z" id="Path" fill="#C3BAC7"></path>
            <path d="M316.348826,206 C312.118039,206 307.954157,202.838927 308.000381,196.397904 C308.592181,190.833593 312.649624,188 316.654761,188 C320.881899,188 325.049431,191.161073 324.999557,197.602667 C324.411407,203.166407 320.350314,206 316.348826,206 Z" id="Path" fill="#C3BAC7"></path>
            <path d="M123.318766,212 C81.8687989,113.933708 163.942396,67 213.5799,67 C220.93513,67 227.57448,68.0298434 233,70.0760763 C158.073855,94.6259785 135.901887,151.320572 123.318766,212 Z" id="Path" fill="#C3BAC7"></path>
            <path d="M408.765883,205 C398.6888,205 387.374035,195.695781 383,173.963503 C387.902713,178.450534 393.226378,180.395815 398.488569,180.395815 C411.984204,180.395815 425.068839,167.597337 429.598609,152 C430.466859,154.925399 431.182302,158.134941 431.711565,161.634377 C433.93576,187.880719 422.943003,203.24453 410.912796,204.856779 C410.203794,204.95341 409.488352,205 408.765883,205 Z" id="Path" fill="#B9AFBE"></path>
            <path d="M405.201602,211 C395.028086,211 384.290363,203.976288 376.326211,187.318729 C373.292192,179.313351 372.405242,170.433704 373.374657,161.872631 C375.893119,166.576424 378.655417,170.245455 381.562475,172.998586 C385.994848,195.795935 397.460522,205.555884 407.672008,205.555884 C408.404112,205.555884 409.129096,205.507012 409.846962,205.405647 C422.038213,203.71443 433.177585,187.598085 430.923131,160.066171 C430.387402,156.394727 429.662418,153.028582 428.782588,149.959894 C429.600717,147.046872 430.143565,144.039727 430.366638,141 C445.838712,179.337485 426.796889,211 405.201602,211 Z" id="Path" fill="#371A45"></path>
            <path d="M344.386082,131 C343.60478,131 342.881423,130.909326 342.228747,130.768624 C334.245078,129.048311 330.984878,118.406262 330.173649,115.186383 C329.391711,112.07969 331.32427,108.938603 334.48832,108.17131 C337.645365,107.402141 340.838705,109.295673 341.627647,112.396112 C342.251033,114.829939 343.530916,117.657104 344.529989,118.962816 C344.780872,118.725811 345.105618,118.390003 345.488946,117.916621 C347.524661,115.415257 351.238232,115.009411 353.782716,117.007375 C356.3272,119.004713 356.744276,122.65045 354.708562,125.151188 C350.965063,129.751194 347.28524,131 344.386082,131 Z" id="Path" fill="#371A45"></path>
            <path d="M194,451 L181.524348,446.404652 L157.807624,410.383426 C158.763673,409.062626 159.424152,407.2911 159.767907,405.204609 C160.257978,402.223908 160.094621,398.600004 159.202622,394.721472 C159.196158,394.700354 159.192632,394.682856 159.189107,394.665358 C159.182643,394.64424 159.179117,394.626741 159.175591,394.605623 C159.175591,394.605623 159.175591,394.605623 159.175591,394.602606 C158.372322,391.170577 156.997303,387.547275 155,384 C158.355281,387.179816 161.635935,390.953963 164.583411,395.423807 C171.335106,405.669212 172.601416,417.131033 169.74267,423.001927 C176.929788,431.406417 182.637291,441.613809 194,451 Z" id="Path" fill="#2771BE"></path>
            <path d="M219,466 L178.118655,452.109627 L152,415.477335 C153.949696,415.379153 155.531898,414.485583 156.696043,413 L181.582726,447.888983 L194.673808,452.339887 C200.770155,456.993582 208.422805,461.437473 218.628805,465.336689 L219,466 Z" id="Path" fill="#371A45"></path>
            <path d="M113,355 C113,355 136.763899,360.21792 152.057086,382.343455 C161.997225,396.730025 160.642877,413.55033 151.935201,413.988694 C143.231857,414.427664 115.550927,402.211691 113,355 Z" id="Path" fill="#FFFFFF"></path>
            <path d="M160.674795,407 C161.258595,403.872338 161.063995,400.069759 160.001395,396 C161.063995,400.069759 161.258595,403.872338 160.674795,407 Z" id="Path" fill="#2D5394"></path>
            <path d="M129,400 C123.502699,393.146218 118.535224,383.158677 116,369 L116.006328,369.010212 C118.538676,383.162281 123.506151,393.149822 129,400 Z" id="Shape" fill="#7489BC"></path>
            <path d="M117.19125,372 L117.18355,371.98746 C116.62355,368.83042 116.16155,365.502987 115.80875,362 C115.81295,362.008114 115.81715,362.016965 115.81715,362.020654 C116.16995,365.519953 116.63195,368.842959 117.19125,372 Z" id="Path" fill="#371A45"></path>
            <path d="M158.58645,396.8458 C158.50035,396.5861 158.45695,396.3705 158.41355,396.1542 C158.45695,396.3705 158.50035,396.5861 158.58645,396.8458 Z" id="Path" fill="#2D5394"></path>
            <path d="M152.882453,415 C148.379314,415 139.375375,411.646588 131.431444,402.008814 C131.431444,402.005229 131.427936,402.005229 131.427936,402.001643 C131.414489,401.9879 131.404549,401.974156 131.39461,401.959815 C131.380578,401.946072 131.36713,401.928743 131.353683,401.914999 C131.353683,401.911414 131.353683,401.911414 131.353683,401.911414 C125.770071,395.097629 120.721433,385.162279 118.14771,371.084162 C117.680558,368.526677 117.294674,365.834147 117,363 C125.30935,387.480746 141.959037,394.90044 148.663464,394.90044 C148.812556,394.90044 148.954631,394.896855 149.093783,394.889684 C152.520542,394.709824 154.758664,391.719718 155.48658,387.2489 C157.206683,390.467267 158.408767,393.730451 159.140191,396.831102 C159.140191,396.834687 159.140191,396.834687 159.140191,396.834687 C159.143699,396.855601 159.147207,396.87293 159.153639,396.893844 C159.157147,396.911173 159.160655,396.928502 159.167086,396.948818 C160.054617,400.790423 160.217156,404.379268 159.72954,407.331131 C158.9911,411.802546 156.762917,414.806396 153.319203,414.989244 C153.180636,414.996415 153.031544,415 152.882453,415 Z" id="Path" fill="#B9AFBE"></path>
            <path d="M122.439457,362.922602 C127.284844,399.184005 149.21034,407.032929 153.90705,407.032929 C153.974076,407.032929 154.0344,407.032929 154.090458,407.029378 C154.359172,407.015767 154.65165,406.515112 154.807029,406.2204 C156.518635,402.878556 156.123181,393.727692 149.823935,384.69341 C141.37924,372.584182 129.917756,366.099928 122.439457,362.922602 Z M153.875365,418 C140.751631,418 112.985714,402.72114 110.395455,355.221626 L110,348 L117.266252,349.580082 C118.310642,349.806146 143.045146,355.413366 159.17592,378.544701 C166.787662,389.463837 169.148813,402.854884 164.913974,411.111553 C162.786197,415.258232 159.052227,417.763875 154.672977,417.979879 C154.411575,417.99349 154.147126,418 153.875365,418 Z" id="Shape" fill="#371A45"></path>
            <path d="M436.420895,399 C435.817493,399 435.2063,398.869173 434.623271,398.593842 C432.551808,397.604909 431.677564,395.139416 432.669852,393.079487 C441.547121,374.709603 428.876865,359.476591 420.53409,352.030755 C404.539428,337.751591 383.113543,332.20334 375.353798,336.955925 C373.393189,338.154776 370.828578,337.551783 369.621173,335.609597 C368.41317,333.666818 369.020767,331.121639 370.977781,329.923383 C384.189721,321.829954 410.147417,331.641974 426.10373,345.883079 C443.247074,361.184477 448.376296,379.689351 440.179728,396.65463 C439.464872,398.135353 437.972245,399 436.420895,399 Z" id="Path" fill="#371A45"></path>
            <path d="M339.486892,526 C339.262062,526 339.034251,525.982799 338.802861,525.944839 C336.543832,525.574136 335.017734,523.450747 335.390462,521.204581 C341.991027,481.573724 323.391605,463.549831 311.717765,456.332682 C295.592064,446.361058 274.029305,445.55678 261.561108,454.453661 C259.706414,455.783448 257.112824,455.360549 255.779352,453.509405 C254.442899,451.661226 254.867511,449.08469 256.729361,447.759055 C272.008821,436.849107 296.976823,437.508662 316.097468,449.332023 C338.951356,463.460862 348.964319,490.147945 343.569008,522.554535 C343.234447,524.570568 341.476364,526 339.486892,526 Z" id="Path" fill="#371A45"></path>
        </g>
        <g id="Hearth" transform="translate(358, 12)">
            <path d="M12.3932773,127 C11.4416498,127 10.5012696,126.62869 9.79317263,125.91467 C8.61219599,124.723814 8.3769787,122.879098 9.21808836,121.422457 L18.1793293,105.947255 C20.1192607,102.598066 19.7084862,98.4337706 17.1597284,95.5865661 C8.13344811,85.5039904 3.10635088,72.4746024 3.00170119,58.8978646 C2.76648389,28.6634515 26.9532766,3.59286354 56.914385,3.01055251 C57.2767467,3.00369831 57.6366634,3 57.9990252,3 C72.8539019,3 86.7737777,8.88040942 97.1976692,19.5578211 C107.613736,30.2320275 113.227654,44.3669633 112.992926,59.356948 C112.518579,89.4404702 87.8427694,113.917356 57.993646,113.917356 L57.5178322,113.914398 C52.8501627,113.874456 48.208411,113.240812 43.725101,112.026781 C43.0282514,111.838414 42.308907,111.741271 41.5841835,111.741271 C40.0917029,111.741271 38.6158488,112.146606 37.3131069,112.914868 L14.2451856,126.494564 C13.6676562,126.834316 13.0275327,127 12.3932773,127 Z" id="Path" fill="#F9195A"></path>
            <path d="M59.0005744,0 C58.6135827,0 58.2260993,0.00368667641 57.8386159,0.0111091849 C25.6976555,0.630569133 -0.248979682,27.2927604 0.00180271502,59.4465265 C0.112933738,73.8855175 5.50672219,87.7429968 15.1923317,98.4668012 C16.669981,100.105652 16.9006024,102.511823 15.7671643,104.455438 L6.75670034,119.88295 C5.0621981,122.784119 5.53770119,126.459489 7.91275801,128.836658 C9.33680864,130.259715 11.2309533,131 13.1442755,131 C14.4203153,131 15.707665,130.669674 16.8696234,129.992308 L40.0625696,116.455816 C40.8085243,116.019805 41.6488912,115.789265 42.4946671,115.789265 C42.8988693,115.789265 43.3006129,115.843336 43.6876045,115.949021 C48.5006596,117.238374 53.4784443,117.913282 58.4852411,117.956047 L58.992215,117.958505 C91.0210609,117.958505 117.48598,91.9286034 117.992462,59.9326762 C118.243244,43.9924705 112.229384,28.9606619 101.047439,17.6080581 C89.8704122,6.25338968 74.9370581,0 59.0005744,0 Z M59.0005744,7.39070477 C87.7781003,7.39070477 111.059066,30.9416361 110.601757,59.8161772 C110.154283,87.8550718 86.9952658,110.568439 58.992215,110.568439 C58.8466628,110.568439 58.6961934,110.568439 58.5476909,110.56549 C54.0739296,110.528623 49.739328,109.919093 45.6043688,108.809649 C44.5820617,108.534869 43.5366434,108.400182 42.4946671,108.400182 C40.3502317,108.400182 38.2200565,108.971371 36.334763,110.07295 L13.1418169,123.609934 L22.1522809,108.181931 C24.8917097,103.489529 24.3193358,97.5480814 20.6800407,93.5148574 C12.5065014,84.4662788 7.49429562,72.515057 7.39447439,59.3885228 C7.17516273,31.2832681 29.8699862,7.94159254 57.9812177,7.40038844 C58.3229702,7.39414567 58.6617723,7.39070477 59.0005744,7.39070477 Z" id="Shape" fill="#371A45"></path>
            <path d="M104.093613,83 C107.282461,76.4841298 109.128112,69.2187944 109.247507,61.5504306 C109.715139,32.6426233 86.1659205,9.06689505 57.0464171,9.06689505 C56.7061407,9.06689505 56.360392,9.07033974 56.0176281,9.07688464 C42.4588065,9.33508848 30.1476651,14.7839917 21,23.4618946 C21.4785759,22.4874912 21.9855082,21.5299177 22.5212943,20.5899612 C30.1680618,12.8488653 40.2345727,7.45099271 51.4945386,5.65375225 C51.5029957,5.65262042 51.5114529,5.65094729 51.5204075,5.64976625 C51.5403067,5.64637078 51.5631908,5.64292609 51.5835875,5.63953061 C51.5980144,5.63751301 51.6094565,5.63524936 51.6238834,5.63323176 C51.6412952,5.63067285 51.658707,5.62781868 51.6756213,5.62525977 C51.7392988,5.61502413 51.8054637,5.60503454 51.8716285,5.59504495 C51.8746134,5.59450364 51.8775983,5.59391313 51.8830706,5.59307656 C51.9089395,5.58938582 51.935306,5.58535062 51.9581901,5.58165988 L51.9611749,5.58165988 C54.1824238,5.24737769 56.4529233,5.05358948 58.7577488,5.00969433 C59.1034975,5.00339548 59.4462614,5 59.7890252,5 C79.9255294,5 97.4025048,16.2782474 106.113382,32.7981262 C109.993727,40.1623734 112.132892,48.5698685 111.993598,57.4827482 C111.849328,66.2942557 109.43655,74.5733131 105.327364,81.7933756 C104.924405,82.201817 104.511496,82.6043532 104.093613,83 Z" id="Path" fill="#FC8CAD"></path>
            <path d="M104,36 C95.3136064,19.3604957 77.8857542,8.00054523 57.8058483,8.00054523 C57.4640478,8.00054523 57.1222474,8.00401487 56.7774705,8.01030979 C54.4791232,8.05452292 52.2150056,8.24971499 50,8.5864684 C52.2150056,8.24946716 54.4791232,8.05422553 56.7774705,8.01001239 C57.1222474,8.00342007 57.4610714,8 57.8058483,8 C77.8857542,8 95.3136064,19.3604957 104,36 Z" id="Shape" fill="#9B8DA2"></path>
            <path d="M12.7700973,124 L21.8645625,108.276869 C22.987799,106.332649 23.5311573,104.193159 23.5365859,102.060644 C23.5652097,98.9732033 22.4819478,95.9036959 20.3356579,93.5026855 C20.2897612,93.4508795 20.2438644,93.3995716 20.1955001,93.3477656 C20.189578,93.3397954 20.1811882,93.3313271 20.1752661,93.323357 C20.1639153,93.312398 20.1555255,93.301439 20.1471358,93.2909782 C20.1412136,93.2859968 20.1382526,93.2810155 20.1328239,93.2760341 C20.1209796,93.2625845 20.1096288,93.2491349 20.098278,93.2356852 C20.0953169,93.2326964 20.0923558,93.2297076 20.0898882,93.2272169 C14.6878904,87.1016518 10.6919123,79.6864153 8.61422083,71.496579 C8.61125975,71.4906014 8.61125975,71.48562 8.60829867,71.4796424 C8.60533759,71.4617095 8.59990894,71.4427804 8.59398678,71.4248476 C8.59398678,71.4178737 8.5910257,71.4123942 8.5910257,71.4054203 C8.58559705,71.3879856 8.58263597,71.3705508 8.57720732,71.3536143 C8.57424624,71.345146 8.57424624,71.3371758 8.57128516,71.3292057 C8.56832408,71.3122691 8.56289543,71.2968269 8.55993435,71.2798903 C8.55697327,71.2719201 8.55401219,71.2634518 8.55401219,71.2554817 C8.54858354,71.2405376 8.54562246,71.2250955 8.54266138,71.2101514 C8.5397003,71.1971999 8.53427165,71.1847465 8.53131057,71.171795 C8.52834949,71.160836 8.52538841,71.1493789 8.52242733,71.1379218 C8.51995977,71.1204871 8.5140376,71.1035505 8.51107652,71.0861158 C8.50860896,71.0806363 8.50860896,71.0741606 8.50564788,71.068183 C8.5026868,71.0507482 8.49676464,71.0328154 8.49429707,71.0153806 C8.49133599,71.0084068 8.49133599,71.0014329 8.48837491,70.9949571 C8.48541383,70.9755299 8.47998518,70.9580951 8.47406302,70.939166 C8.47406302,70.9336865 8.47406302,70.9292033 8.47110194,70.9237238 C8.46814086,70.9047947 8.46271221,70.8858656 8.45679005,70.8674346 C8.45679005,70.8619551 8.45382897,70.8564756 8.45382897,70.8509961 C8.44840032,70.8305726 8.44247816,70.8096509 8.44001059,70.7892274 C8.44001059,70.7862386 8.43704951,70.7827516 8.43704951,70.7797628 C8.43112735,70.7603356 8.42816627,70.7394139 8.42273762,70.7194885 C8.42273762,70.7150053 8.41977654,70.7110202 8.41977654,70.706537 C8.41385438,70.6841209 8.40842573,70.6612067 8.40250357,70.6382925 C8.40250357,70.6377944 8.40250357,70.6367981 8.40250357,70.6358018 C8.39707493,70.6133858 8.39115276,70.591966 8.38819168,70.5690518 C8.3852306,70.5670592 8.3852306,70.5650667 8.3852306,70.5630741 C8.37980196,70.5386655 8.37387979,70.5162495 8.36845115,70.492339 C8.36845115,70.4918408 8.36845115,70.4918408 8.36845115,70.4913427 C8.36252899,70.4669341 8.35710034,70.4440199 8.35117818,70.4196113 L8.35117818,70.4191131 C7.50825727,66.7702748 7.04484817,62.9739886 7.0019125,59.0750865 C7.0019125,59.0232805 7.0019125,58.9714745 7.0019125,58.9196684 C6.98760061,57.2509164 7.05373141,55.6005954 7.19635679,53.9682073 C7.19635679,53.9677091 7.19635679,53.967211 7.19635679,53.9662147 C7.19931787,53.9423043 7.19931787,53.9183938 7.20227895,53.8944833 C7.20227895,53.8900001 7.20227895,53.8865131 7.20227895,53.8820299 C7.20524003,53.860112 7.2077076,53.8381941 7.2077076,53.8162761 C7.21066868,53.8107966 7.21066868,53.804819 7.21066868,53.7998377 C7.21362976,53.778916 7.21362976,53.7594887 7.21659084,53.7390652 C7.21659084,53.731095 7.21659084,53.7241212 7.21955192,53.7166491 C7.21955192,53.6982181 7.22201949,53.6782927 7.22201949,53.6598618 C7.22498057,53.6508953 7.22498057,53.642427 7.22498057,53.6339587 C7.22794165,53.6170221 7.22794165,53.6025762 7.23090273,53.5856396 C7.23090273,53.5736844 7.23386381,53.5622273 7.23386381,53.5502721 C7.23386381,53.5368224 7.23633138,53.5213802 7.23633138,53.5079306 C7.23929246,53.4949791 7.23929246,53.480035 7.24225354,53.4670835 C7.24225354,53.4551283 7.24521462,53.4451656 7.24521462,53.4332104 C7.24521462,53.41727 7.24768218,53.3993372 7.25064326,53.3828987 C7.25064326,53.3744304 7.25064326,53.3664603 7.25360434,53.357992 C7.25360434,53.3385647 7.25656543,53.3186393 7.25952651,53.2992121 C7.25952651,53.2937326 7.25952651,53.2887512 7.25952651,53.2837699 C7.26199407,53.2608557 7.26495515,53.2384396 7.26495515,53.2150273 C7.26791623,53.2135329 7.26791623,53.2095478 7.26791623,53.2075552 C7.27087731,53.1821504 7.27383839,53.1572436 7.27383839,53.1318387 L7.27630596,53.1308425 C8.51107652,41.1163262 13.8390473,30.2455278 21.827549,22 C21.827549,22.0023412 21.8245879,22.0046327 21.8245879,22.007223 C18.9863923,24.9400421 16.4798376,28.2056653 14.378951,31.7359475 C16.1625085,29.2935919 18.1489,27.0111875 20.3154239,24.9143882 C16.9600262,31.8938562 15.0965195,39.712582 15.1591957,47.9397784 C15.26234,61.2419734 20.2927223,73.3531278 28.4929411,82.5222974 C29.7987776,83.9823309 31.1194195,85.3467224 32.2796696,86.8725097 C36.984333,93.0668175 43.884144,97.2511508 51.6012133,97.7662223 C52.4100817,97.8200209 53.0704027,97.9032095 53.5106167,98.0217656 C57.6576099,99.145558 62.0108917,99.7642415 66.5008767,99.8030961 C66.6494243,99.8045905 66.7979718,99.8050886 66.9470129,99.8050886 C80.7688431,99.8050886 93.4092021,94.2254793 102.746476,85.182836 C102.060492,86.6104907 101.315287,88.0022797 100.51086,89.3552142 C101.769319,87.6336599 102.924141,85.832404 103.970389,83.9614092 C103.975324,83.9504502 103.99013,83.9399894 104,83.9290304 C99.3017523,92.3664398 92.3530834,99.3732056 84.004317,104.111963 C84.004317,104.112959 84.004317,104.112959 84.0013559,104.113956 C83.9446019,104.146833 83.8873543,104.179211 83.8301068,104.21159 C83.821717,104.216571 83.8074051,104.223047 83.7985219,104.228029 C83.7812489,104.237991 83.7644695,104.247954 83.7471965,104.257917 C83.7358457,104.264392 83.7269625,104.269374 83.7156117,104.275351 C83.69291,104.287307 83.6702084,104.29976 83.6499744,104.311217 C83.6327014,104.32118 83.6099998,104.333633 83.5927268,104.343596 C83.581376,104.349075 83.5754538,104.353559 83.564103,104.359038 C83.5473236,104.369499 83.5270895,104.37996 83.5098166,104.389922 C83.5043879,104.392413 83.5014268,104.393908 83.4984657,104.396398 C76.132778,108.467157 67.7040624,110.78448 58.7867686,110.78448 C58.6406886,110.78448 58.48918,110.78448 58.3406324,110.781492 C54.7651278,110.7526 51.2784555,110.35459 47.9082524,109.624324 C47.9057848,109.624324 47.8998626,109.621834 47.8969016,109.621834 C47.8712389,109.615856 47.8455762,109.609878 47.8169524,109.604399 C47.8085627,109.60141 47.7996794,109.60141 47.7883286,109.598421 C47.7685881,109.592942 47.748354,109.589953 47.72812,109.583975 C47.7113405,109.581485 47.6940676,109.578496 47.6797557,109.575507 C47.6654438,109.572518 47.6511319,109.569529 47.6397811,109.567039 C47.6170795,109.561061 47.5938843,109.555083 47.5711827,109.549604 C47.562793,109.549604 47.5568708,109.546615 47.5509487,109.546615 C47.5198573,109.538147 47.4912335,109.532169 47.4626098,109.52669 C47.4626098,109.52669 47.4626098,109.52669 47.4596487,109.52669 C46.773665,109.370774 46.0906425,109.200411 45.4130486,109.018592 C45.3873859,109.011618 45.3617232,109.004644 45.3360605,108.998169 C44.3130072,108.722202 43.2697198,108.587207 42.2293935,108.587207 C40.0771815,108.587207 37.9392814,109.16604 36.047151,110.28236 L12.7700973,124 Z" id="Path" fill="#B31D61"></path>
            <path d="M10.7670138,124 L34.2101396,110.483974 C36.1157696,109.384101 38.2689228,108.813796 40.4364899,108.813796 C41.4842385,108.813796 42.5349693,108.947293 43.5653217,109.218703 C42.5349693,108.953673 41.4812563,108.822631 40.4364899,108.822631 C38.2659406,108.822631 36.1182548,109.384101 34.2101396,110.483974 L10.7670138,124 Z M57.1149772,110.978697 C56.9648728,110.978697 56.8152655,110.978697 56.6656581,110.978697 C53.0616615,110.947286 49.5501132,110.55514 46.1558651,109.836124 C49.5501132,110.55514 53.0616615,110.947286 56.6626759,110.975752 C56.8122833,110.978697 56.9648728,110.978697 57.111995,110.978697 C66.0929101,110.978697 74.5817611,108.695515 82,104.684731 C74.5817611,108.696005 66.0929101,110.978697 57.1149772,110.978697 Z M21.6103169,102.38339 C21.6162813,99.299229 20.4532207,96.229792 18.2513582,93.8042792 C18.2513582,93.8028068 18.248376,93.8008436 18.2453938,93.7988804 C18.2941032,93.8499232 18.3403274,93.9004751 18.3865516,93.9515179 C20.5481543,96.3171537 21.6391449,99.3414374 21.6103169,102.38339 Z M18.1390284,93.6801078 C12.6984896,87.6447919 8.67400179,80.3397872 6.58148684,72.2701226 C8.67400179,80.3388056 12.6984896,87.6447919 18.1390284,93.6801078 Z M5.00389956,60.0311478 C5.00389956,59.980105 5.00389956,59.9290622 5.00389956,59.8780195 C4.97507157,58.2348351 5.10628866,56.6068655 5.39059235,55 C5.10628866,56.607847 4.97507157,58.2338535 5.00389956,59.8780195 C5.00389956,59.9290622 5.00389956,59.980105 5.00389956,60.0311478 Z" id="Shape" fill="#2B1E52"></path>
            <path d="M100.48608,90 C101.303154,88.6339655 102.060076,87.2287003 102.756844,85.7872221 C103.177913,85.3828437 103.593969,84.9714238 104,84.5539685 C102.937302,86.4430796 101.764325,88.2617764 100.48608,90 Z M13,31.8228241 C15.1339169,28.2583593 17.6798797,24.9612167 20.5626976,22 C20.0228272,22.9606502 19.5120305,23.9394068 19.0298064,24.9353144 C16.8292203,27.0523661 14.8115987,29.35682 13,31.8228241 Z" id="Shape" fill="#B56E9B"></path>
            <path d="M40.0604305,40.4241128 C45.4713093,35.2857369 54.246826,36.206744 59.6577048,41.3446407 L60.4996214,42.1444121 L61.341538,41.3446407 C66.7554453,36.206744 75.5279336,35.2857369 80.9418409,40.4241128 C86.3527197,45.5620095 86.3527197,53.8922833 80.9418409,59.0306592 L63.0839218,75.9839932 C61.6575091,77.3386689 59.345267,77.3386689 57.9153211,75.9839932 L40.0604305,59.0306592 C34.6465232,53.8922833 34.6465232,45.5620095 40.0604305,40.4241128 Z" id="Path" fill="#FFFFFF"></path>
            <path d="M39.404093,56 C39.2713425,56 39.1424964,55.9598099 39.0130925,55.8732467 C37.934355,55.1493101 37.3464598,51.4631591 39.1876762,49.122345 C40.4052998,47.5724509 42.3820556,47 43.8908378,47 C44.6627989,47 45.3120494,47.1494246 45.6773922,47.3941719 C46.7561297,48.1181084 44.9344355,49.402645 43.0932191,51.7444896 C41.4745551,53.8060342 40.3796421,56 39.404093,56 Z" id="Path" fill="#FDF2F2"></path>
            <path d="M48.8509856,44.5099 C48.3055856,44.5099 47.7667856,44.2849 47.4403856,43.8217 C46.9747856,43.1617 47.3917856,42.0709 48.4897856,41.6425 C48.7603856,41.5381 49.0279856,41.4901 49.2781856,41.4901 C50.0461856,41.4901 50.6581856,41.9359 50.7343856,42.5407 C50.8417856,43.3477 50.2861856,44.0905 49.5565856,44.3815 C49.3303856,44.4667 49.0909856,44.5099 48.8509856,44.5099 Z" id="Path" fill="#FDF2F2"></path>
        </g>
    </g>
</svg>